<?xml version="1.0" encoding="UTF-8"?>
<svg version="1.1" xmlns="http://www.w3.org/2000/svg" width="362" height="362" viewBox="0 0 362 362">
  <path d="M162.9375 21.375 C162.20490967 21.73440674 161.47231934 22.09381348 160.7175293 22.46411133 C154.34327856 25.66596179 148.34347939 29.37651576 142.3515625 33.234375 C137.37242625 36.43011312 132.28504748 39.43545868 127.1875 42.4375 C126.26541748 42.98212891 125.34333496 43.52675781 124.39331055 44.08789062 C119.73914222 46.82893605 115.0692709 49.53816842 110.37109375 52.203125 C109.48719971 52.70658447 108.60330566 53.21004395 107.69262695 53.72875977 C106.01138753 54.68391861 104.3264414 55.63258924 102.63745117 56.57397461 C101.89342041 56.99686768 101.14938965 57.41976074 100.3828125 57.85546875 C99.72684082 58.22309326 99.07086914 58.59071777 98.39501953 58.96948242 C97.70448486 59.47958862 97.70448486 59.47958862 97 60 C97 60.66 97 61.32 97 62 C96.11957031 62.2784375 95.23914063 62.556875 94.33203125 62.84375 C83.53229397 66.59137278 73.7457247 72.99373006 63.97802734 78.82910156 C61.00549511 80.58869976 58.00443098 82.29552543 55 84 C55 84.66 55 85.32 55 86 C54.27683594 86.27457031 53.55367187 86.54914063 52.80859375 86.83203125 C44.5596214 90.26241057 36.8880528 94.92689315 32.9440279 103.22053814 C31.86461612 106.39860509 31.74557221 108.92553362 31.73930359 112.27998352 C31.73221878 113.54583282 31.72513397 114.81168213 31.71783447 116.1158905 C31.72012812 117.51126135 31.7226378 118.90663185 31.7253418 120.30200195 C31.72099262 121.77742775 31.71580879 123.25285129 31.70985413 124.72827148 C31.69647292 128.73047652 31.69588462 132.73258707 31.69841743 136.73481011 C31.69948803 140.07956646 31.69460131 143.42430376 31.689812 146.76905602 C31.67871921 154.6633533 31.67827771 162.557603 31.68432617 170.4519043 C31.6903625 178.58564213 31.67806314 186.71920682 31.6567561 194.85291511 C31.63911774 201.84417709 31.63314238 208.83538408 31.63639385 215.82666749 C31.63820376 219.99862671 31.63559999 224.1704625 31.62167931 228.3424015 C31.60906966 232.26835445 31.61107453 236.1940385 31.62409019 240.11998749 C31.62644896 241.55664601 31.62374646 242.99332364 31.61546707 244.42996025 C31.44269565 256.53129705 31.44269565 256.53129705 36.69140625 267.13671875 C44.96938081 274.0828804 44.96938081 274.0828804 55 277 C55 277.66 55 278.32 55 279 C55.8765625 279.48726563 56.753125 279.97453125 57.65625 280.4765625 C58.93782412 281.19212815 60.21904033 281.90833499 61.5 282.625 C62.19109863 283.01163818 62.88219727 283.39827637 63.59423828 283.79663086 C68.2030252 286.38913581 72.77802518 289.03383952 77.3359375 291.71484375 C78.41681641 292.35019043 79.49769531 292.98553711 80.61132812 293.64013672 C82.77630689 294.91534937 84.93909617 296.19428696 87.09960938 297.47705078 C88.59331055 298.35659424 88.59331055 298.35659424 90.1171875 299.25390625 C91.45692627 300.04776733 91.45692627 300.04776733 92.82373047 300.85766602 C94.88550088 302.15492257 94.88550088 302.15492257 97 302 C97 302.66 97 303.32 97 304 C107.5917295 310.15096573 118.1478391 316.28076074 129.1875 321.59765625 C132 323 132 323 134.75 324.68359375 C136.85324138 326.16832955 136.85324138 326.16832955 139 326 C139 326.66 139 327.32 139 328 C142.59162466 330.08357088 146.18460303 332.16478238 149.77880859 334.24389648 C150.99922791 334.95029365 152.21928663 335.65731422 153.43896484 336.36499023 C155.20053276 337.38693008 156.96342101 338.40655925 158.7265625 339.42578125 C159.78439941 340.03848877 160.84223633 340.65119629 161.93212891 341.2824707 C170.45082397 346.10503104 170.45082397 346.10503104 180 346 C195.44570036 339.99951209 209.58518529 330.03200059 223.62988281 321.37988281 C227.65704542 318.92084673 231.68357412 316.61589743 235.92578125 314.546875 C241.56167943 311.78885887 246.85529522 308.54917521 252.1875 305.25 C254.23157461 303.9957739 256.27584524 302.74186721 258.3203125 301.48828125 C259.79032715 300.58456787 259.79032715 300.58456787 261.29003906 299.66259766 C267.16377134 296.05898353 273.07853573 292.52445112 279 289 C279.85513184 288.49049805 280.71026367 287.98099609 281.59130859 287.45605469 C284.47598319 285.73890343 287.36270301 284.02523771 290.25 282.3125 C291.14920166 281.7774585 292.04840332 281.24241699 292.97485352 280.69116211 C298.45028053 277.45023485 303.97905754 274.36989552 309.6237793 271.43237305 C315.46945106 267.90863358 318.14089855 263.44325311 320 257 C320.30192927 253.88756852 320.30192927 253.88756852 320.26742554 250.59976196 C320.27595551 249.33253799 320.28448547 248.06531403 320.29327393 246.75968933 C320.292575 245.36795031 320.291652 243.97621139 320.29052734 242.58447266 C320.29651613 241.10889853 320.30332249 239.63332753 320.31088257 238.15776062 C320.32851316 234.15975555 320.33323667 230.16183614 320.33451414 226.16379595 C320.33593785 223.66344219 320.3402116 221.16311006 320.34550858 218.66276169 C320.36399843 209.93271252 320.37218041 201.20272435 320.37060547 192.47265625 C320.36940403 184.34623867 320.3905094 176.22008667 320.4220928 168.09373629 C320.4482766 161.10669893 320.4589719 154.11974821 320.45769465 147.13266218 C320.45718568 142.96402412 320.46283305 138.79562224 320.48405075 134.62703323 C320.50346904 130.70511385 320.50353344 126.78365512 320.48901749 122.86171913 C320.48693278 121.42666638 320.49161012 119.99158451 320.5037384 118.5565815 C320.57369048 109.70291317 320.39643022 102.89358752 314.23828125 96.0390625 C308.12065064 91.54700919 301.6596845 87.73955989 295.08984375 83.95703125 C291.262692 81.74885173 287.47199697 79.4862007 283.69140625 77.19921875 C282.59570312 76.53664062 281.5 75.8740625 280.37109375 75.19140625 C278.21463213 73.88530848 276.05961033 72.57682956 273.90625 71.265625 C268.51408832 68.00829106 263.10296821 64.99208278 257.44165039 62.23168945 C253.07135732 60.02709706 248.88876356 57.50789126 244.6875 55 C243.74108643 54.43821045 242.79467285 53.8764209 241.81958008 53.29760742 C234.35112124 48.84724562 226.9579812 44.28050205 219.57641602 39.68798828 C213.95705042 36.19701673 208.31545057 32.74900624 202.625 29.375 C201.95364014 28.97321533 201.28228027 28.57143066 200.59057617 28.1574707 C196.49665573 25.74760371 192.38282183 23.82967084 188 22 C186.1055791 20.95492279 184.23899827 19.8807456 182.3828125 18.76953125 C175.36471958 16.50303239 169.29563612 18.13626503 162.9375 21.375 Z" fill="#10b981" transform="translate(0,0)"/>
  <path d="M0 0 C0.70181396 0.00572021 1.40362793 0.01144043 2.12670898 0.01733398 C11.10756333 0.32572961 16.70464438 4.35379875 22.6875 10.73828125 C28.29845028 17.61474477 28.95892641 25.9493179 28.125 34.5 C26.02257293 42.09276518 21.33968624 48.39401299 14.9375 52.9375 C12.125 54.5 12.125 54.5 9.125 54.5 C9.125 70.67 9.125 86.84 9.125 103.5 C12.095 103.5 15.065 103.5 18.125 103.5 C29.25880478 104.92547258 40.4881677 106.87926562 49.125 114.5 C49.75148438 114.74234375 50.37796875 114.9846875 51.0234375 115.234375 C55.96244918 118.20879839 58.457288 125.11900299 60.125 130.5 C61.73201026 139.58112401 60.30433349 148.92128118 57.125 157.5 C56.70734375 158.64855469 56.70734375 158.64855469 56.28125 159.8203125 C54.10398821 165.20715848 51.05301081 169.5235247 47.41796875 174.04296875 C45.6907324 177.32523964 46.15896126 178.97006696 47.125 182.5 C47.46789062 183.33015625 47.81078125 184.1603125 48.1640625 185.015625 C50.51115464 191.08371689 49.95292153 198.35394477 47.5 204.3125 C43.65569983 211.73226817 39.00612402 216.53261322 31.125 219.5 C24.99313422 221.41056029 17.61203639 221.66583076 11.51953125 219.62890625 C9.20544396 218.41411 7.19597 217.09274209 5.125 215.5 C4.47660156 215.00371094 3.82820312 214.50742187 3.16015625 213.99609375 C-2.99041565 208.5997146 -5.83972585 201.14719013 -6.5 193.0625 C-6.14492654 186.25488472 -2.58005756 179.52539332 1.90625 174.5078125 C3.58309069 173.02954505 5.26634627 171.73910248 7.125 170.5 C8.011875 169.901875 8.89875 169.30375 9.8125 168.6875 C15.25587801 165.89225184 21.61618862 165.50245362 27.48828125 167.171875 C29.39073574 167.88825218 31.2618016 168.68696797 33.125 169.5 C33.37378906 168.96761719 33.62257812 168.43523437 33.87890625 167.88671875 C35.4339331 164.90828174 37.24821767 162.14034788 39.0625 159.3125 C43.93384486 151.49823316 47.61300407 143.91287966 46.125 134.5 C44.02444316 127.91350821 40.16876092 123.73097076 34.17260742 120.42285156 C26.31720694 116.82646464 18.52832907 116.87678679 10.0625 117 C9.32955719 117.0052066 8.59661438 117.01041321 7.84146118 117.01577759 C-3.17016469 117.10773554 -13.41039216 117.7965765 -23.875 121.5 C-24.88949219 121.850625 -25.90398437 122.20125 -26.94921875 122.5625 C-30.00973969 123.73930912 -32.92538401 125.06722495 -35.875 126.5 C-36.51937012 126.81066406 -37.16374023 127.12132812 -37.82763672 127.44140625 C-48.06704462 132.43647099 -57.20957982 138.06699513 -65.875 145.5 C-66.64457031 146.056875 -67.41414063 146.61375 -68.20703125 147.1875 C-70.87819519 150.89084672 -70.29372061 154.74419064 -70.25 159.1875 C-70.39953924 167.07640009 -70.93739312 172.76415646 -76.875 178.5 C-83.9360439 185.2079917 -91.34708262 186.89557362 -100.77734375 186.76953125 C-108.50059583 186.09752067 -113.96343977 182.36934073 -119.14453125 176.75390625 C-124.29519868 170.04524912 -125.61529339 163.03747937 -125.3203125 154.6796875 C-124.1566926 146.37103313 -119.50333088 139.52792906 -112.875 134.5 C-106.81867159 130.69928738 -100.95150477 129.43483311 -93.875 130.5 C-88.07406552 132.10052701 -82.972975 134.30575714 -77.875 137.5 C-77.36453125 136.943125 -76.8540625 136.38625 -76.328125 135.8125 C-70.38340817 129.57265538 -64.18290785 125.03807476 -56.875 120.5 C-59.26792258 118.04935341 -61.68752084 115.80694379 -64.375 113.6875 C-67.82733376 110.73359235 -69.8921497 107.55481747 -71.875 103.5 C-72.39449219 102.50742188 -72.91398437 101.51484375 -73.44921875 100.4921875 C-77.875 91.92948718 -77.875 91.92948718 -77.875 88.5 C-78.80119141 88.55220703 -78.80119141 88.55220703 -79.74609375 88.60546875 C-89.05975479 88.90316568 -95.94045672 86.89700261 -103.27734375 81.0625 C-105.29327752 79.09092663 -106.23071976 77.23819102 -106.875 74.5 C-107.535 74.5 -108.195 74.5 -108.875 74.5 C-111.88843492 66.55658554 -112.51049294 57.38141256 -109.125 49.4375 C-108.41183801 48.10462483 -107.66572096 46.78837751 -106.875 45.5 C-106.33875 44.613125 -105.8025 43.72625 -105.25 42.8125 C-99.30086438 37.01992058 -92.43830909 33.40885304 -84.125 33.25 C-74.93728197 33.42462037 -69.68377471 36.78483201 -63.0859375 43.12890625 C-56.7715343 49.90071321 -56.44626898 55.91309087 -56.5390625 64.9140625 C-56.86629469 68.40707592 -57.61994544 71.23685815 -58.875 74.5 C-59.535 74.5 -60.195 74.5 -60.875 74.5 C-61.16375 75.2425 -61.4525 75.985 -61.75 76.75 C-62.875 79.5 -62.875 79.5 -64.12109375 81.2578125 C-65.1715362 83.64122402 -65.1715362 83.64122402 -63.85546875 86.6015625 C-58.81861207 96.49969917 -52.89200887 106.23247913 -42.90625 111.859375 C-37.26618103 113.63816598 -31.50324397 110.35850776 -26.328125 108.296875 C-20.43142654 106.38138697 -13.11629346 104.5 -6.875 104.5 C-6.875 88 -6.875 71.5 -6.875 54.5 C-8.855 54.17 -10.835 53.84 -12.875 53.5 C-20.05263941 49.80562677 -25.34042123 43.10373632 -27.875 35.5 C-28.65877732 26.26262441 -28.64540811 18.1799393 -22.875 10.5 C-16.54317808 3.5191001 -9.56797662 -0.09103579 0 0 Z" fill="#FCFDFE" transform="translate(209.875,75.5)"/>
</svg>
